<svg version="1.2" xmlns="http://www.w3.org/2000/svg" viewBox="0 0 90 90" width="90" height="90">
	<title>New Project</title>
	<defs>
		<linearGradient id="g1" x2="1" gradientUnits="userSpaceOnUse" gradientTransform="matrix(-49.254,-43.49,47.779,-54.111,81.803,56.64)">
			<stop offset="0" stop-color="#4f51fd"/>
			<stop offset="1" stop-color="#3fc5fd"/>
		</linearGradient>
		<linearGradient id="g2" x2="1" gradientUnits="userSpaceOnUse" gradientTransform="matrix(23.729,-2.534,1.567,14.669,37.711,31.839)">
			<stop offset="0" stop-color="#4f51fd"/>
			<stop offset="1" stop-color="#3fc5fd"/>
		</linearGradient>
	</defs>
	<style>
		.s0 { fill: url(#g1) } 
		.s1 { fill: url(#g2) } 
		.s2 { fill: #000000 } 
	</style>
	<path id="Layer" class="s0" d="m40.9 11.1h24.1l13.7-8.5v-2.6h-37.8c-17.6 0-31.9 14.3-31.9 31.9 0 17.5 14.3 31.9 31.9 31.9h18.9c10.4 0 18.9-8.5 18.9-18.9v-30.7l-11.2 6.9v23.8c0 4.3-3.4 7.7-7.7 7.7h-18.9c-11.5 0-20.8-9.3-20.8-20.7 0-11.5 9.3-20.8 20.8-20.8z"/>
	<path id="Layer" class="s1" d="m78.7 11.8v13.1l-11.1 6.9-7.9 5-12.9 8-3.5 2.2-1.4-2.2-12.5-18.7c0.6-1.2 1.4-2.3 2.4-3.3 1.7-1.7 4-3 6.5-3.5l8.4 12.4 13-8.1 7.9-4.9 11.1-7z"/>
	<path id="Layer" class="s2" d="m10.2 90q-4.4 0-7.3-2.9-2.9-3-2.9-7.3 0-4.4 2.9-7.3 2.9-2.9 7.3-2.9 2.7 0 5 1.2 2.2 1.3 3.5 3.4l-3.4 1.9q-0.7-1.3-2-2-1.4-0.8-3.1-0.8-2.8 0-4.6 1.8-1.8 1.8-1.8 4.7 0 2.8 1.8 4.6 1.8 1.8 4.6 1.8 1.7 0 3.1-0.7 1.3-0.8 2-2.1l3.4 2q-1.3 2.1-3.5 3.3-2.3 1.3-5 1.3z"/>
	<path id="Layer" class="s2" d="m32.2 69.9v7.9h-4.2l-3.1 3.7h7.3v8.1h3.9v-19.7h-3.9zm-11.1 0h3.8v19.7h-3.8z"/>
	<path id="Layer" class="s2" d="m43.6 85.9h8.3v3.7h-12.2v-19.7h12.1v3.8h-8.2v4.1h7.5v3.7h-7.5v4.4z"/>
	<path id="Layer" class="s2" d="m63.8 90q-4.4 0-7.3-2.9-2.9-3-2.9-7.3 0-4.4 2.9-7.3 2.9-2.9 7.3-2.9 2.7 0 4.9 1.2 2.3 1.3 3.6 3.4l-3.4 1.9q-0.7-1.3-2.1-2-1.3-0.8-3-0.8-2.9 0-4.6 1.8-1.8 1.8-1.8 4.7 0 2.8 1.8 4.6 1.7 1.8 4.6 1.8 1.7 0 3-0.7 1.4-0.8 2.1-2.1l3.4 2q-1.3 2.1-3.6 3.3-2.2 1.3-4.9 1.3z"/>
	<path id="Layer" class="s2" d="m90 89.6h-4.5l-7-9.2v9.2h-3.9v-19.7h3.9v8.7l6.8-8.7h4.4l-7.3 9.6z"/>
</svg>