<svg xmlns="http://www.w3.org/2000/svg" width="136" height="32" viewBox="0 0 136 32" fill="none">
<path d="M16.0073 5.59256H28.0899L34.9725 1.30456V0H16.0073C7.17692 0 0 7.17329 0 15.9927C0 24.8122 7.17329 32 16.0073 32H25.4844C30.7209 32 34.9725 27.7484 34.9725 22.5337V7.11152L29.38 10.5964V22.5337C29.38 24.6668 27.6393 26.4184 25.4808 26.4184H16.0036C10.2548 26.4184 5.58892 21.7415 5.58892 15.9891C5.58892 10.2367 10.2548 5.58528 16.0036 5.58528L16.0073 5.59256Z" fill="url(#paint0_linear_675_155)"/>
<path d="M34.9761 5.8978V12.4751L29.3836 15.9709L25.4263 18.4456L18.9834 22.4647L17.2282 23.5621L16.4978 22.4647L10.2366 13.1074C10.5419 12.486 10.9561 11.9264 11.4431 11.4395C12.3188 10.5637 13.4272 9.94231 14.6845 9.68431L18.8998 15.9201L25.4299 11.8501L29.3872 9.37906L34.9798 5.89417L34.9761 5.8978Z" fill="url(#paint1_linear_675_155)"/>
<path d="M51.6012 26.7963C48.4797 26.7963 45.8996 25.757 43.861 23.682C41.826 21.6071 40.8085 19.0488 40.8085 16.0036C40.8085 12.9584 41.826 10.3748 43.861 8.3107C45.896 6.24666 48.476 5.211 51.6012 5.211C53.4799 5.211 55.2133 5.6507 56.8049 6.5301C58.3965 7.4095 59.6357 8.60142 60.526 10.1022L56.9975 12.1481C56.4815 11.2178 55.7511 10.4947 54.8026 9.96777C53.8542 9.44449 52.7858 9.18284 51.6012 9.18284C49.5844 9.18284 47.96 9.81514 46.7245 11.0797C45.489 12.3443 44.8712 13.9868 44.8712 16C44.8712 18.0132 45.489 19.6266 46.7245 20.8912C47.96 22.1558 49.5844 22.7881 51.6012 22.7881C52.7858 22.7881 53.8578 22.5265 54.8172 22.0032C55.7765 21.4799 56.4997 20.764 56.9975 19.8556L60.526 21.9014C59.6357 23.4022 58.4002 24.5942 56.8194 25.4736C55.2387 26.353 53.4981 26.7927 51.6012 26.7927V26.7963Z" fill="black"/>
<path d="M74.8435 5.62527V13.8669H70.3629L67.1397 17.7842H74.8435V26.3784H78.9135V5.62163H74.8435V5.62527ZM67.1397 5.62527H63.0479V26.382H67.1397V5.62527Z" fill="black"/>
<path d="M86.8535 22.4647H95.6003V26.3784H82.7618V5.62526H95.4513V9.53895H86.8535V13.9578H94.71V17.8133H86.8535V22.4683V22.4647Z" fill="black"/>
<path d="M108.17 26.7963C105.048 26.7963 102.468 25.757 100.43 23.682C98.3947 21.6071 97.3773 19.0488 97.3773 16.0036C97.3773 12.9584 98.3947 10.3748 100.43 8.3107C102.465 6.24666 105.045 5.211 108.17 5.211C110.049 5.211 111.782 5.6507 113.374 6.5301C114.965 7.4095 116.204 8.60142 117.095 10.1022L113.566 12.1481C113.05 11.2178 112.32 10.4947 111.371 9.96777C110.423 9.44449 109.355 9.18284 108.17 9.18284C106.153 9.18284 104.529 9.81514 103.293 11.0797C102.058 12.3443 101.44 13.9868 101.44 16C101.44 18.0132 102.058 19.6266 103.293 20.8912C104.529 22.1558 106.153 22.7881 108.17 22.7881C109.355 22.7881 110.427 22.5265 111.386 22.0032C112.345 21.4799 113.068 20.764 113.566 19.8556L117.095 21.9014C116.204 23.4022 114.969 24.5942 113.388 25.4736C111.807 26.353 110.067 26.7927 108.17 26.7927V26.7963Z" fill="black"/>
<path d="M135.831 26.3784H131.118L123.705 16.6541V26.3784H119.613V5.62526H123.705V14.7863L130.82 5.62526H135.533L127.855 15.7057L135.831 26.3784Z" fill="black"/>
<defs>
<linearGradient id="paint0_linear_675_155" x1="36.5351" y1="28.4243" x2="11.8174" y2="6.59914" gradientUnits="userSpaceOnUse">
<stop stop-color="#4F51FD"/>
<stop offset="1" stop-color="#3FC5FD"/>
</linearGradient>
<linearGradient id="paint1_linear_675_155" x1="14.4083" y1="15.9782" x2="26.3166" y2="14.7063" gradientUnits="userSpaceOnUse">
<stop stop-color="#4F51FD"/>
<stop offset="1" stop-color="#3FC5FD"/>
</linearGradient>
</defs>
</svg>